<svg width="16" height="17" viewBox="0 0 16 17" fill="none" xmlns="http://www.w3.org/2000/svg">
<path fill-rule="evenodd" clip-rule="evenodd" d="M8.00033 3.97656C5.33095 3.97656 3.16699 6.14052 3.16699 8.8099C3.16699 11.4793 5.33095 13.6432 8.00033 13.6432C10.6697 13.6432 12.8337 11.4793 12.8337 8.8099C12.8337 6.14052 10.6697 3.97656 8.00033 3.97656ZM2.16699 8.8099C2.16699 5.58823 4.77866 2.97656 8.00033 2.97656C11.222 2.97656 13.8337 5.58823 13.8337 8.8099C13.8337 12.0316 11.222 14.6432 8.00033 14.6432C4.77866 14.6432 2.16699 12.0316 2.16699 8.8099Z" fill="#1E1E1E"/>
<path d="M8.66699 5.47656H7.33366V9.47656H8.66699V5.47656Z" fill="#1E1E1E"/>
<path d="M8.66699 10.8099H7.33366V12.1432H8.66699V10.8099Z" fill="#1E1E1E"/>
</svg>
