<svg width="24" height="25" viewBox="0 0 24 25" fill="none" xmlns="http://www.w3.org/2000/svg">
<g clip-path="url(#clip0_64906_130868)">
<g clip-path="url(#clip1_64906_130868)">
<path d="M11.776 5.26436C11.8677 5.07855 12.1327 5.07855 12.2244 5.26436L14.2932 9.45618C14.3296 9.52997 14.4 9.58111 14.4814 9.59294L19.1074 10.2651C19.3124 10.2949 19.3943 10.5469 19.2459 10.6916L15.8985 13.9544C15.8396 14.0119 15.8127 14.0946 15.8266 14.1757L16.6168 18.783C16.6519 18.9872 16.4375 19.143 16.2541 19.0465L12.1165 16.8713C12.0437 16.833 11.9567 16.833 11.8839 16.8713L7.74628 19.0465C7.56288 19.143 7.34852 18.9872 7.38354 18.783L8.17375 14.1757C8.18766 14.0946 8.16077 14.0119 8.10185 13.9544L4.75448 10.6916C4.6061 10.5469 4.68798 10.2949 4.89303 10.2651L9.51899 9.59294C9.60042 9.58111 9.67081 9.52997 9.70722 9.45618L11.776 5.26436Z" fill="black"/>
</g>
</g>
<defs>
<clipPath id="clip0_64906_130868">
<rect y="0.8125" width="24" height="24" rx="2" fill="white"/>
</clipPath>
<clipPath id="clip1_64906_130868">
<rect y="0.8125" width="24" height="24" rx="2" fill="white"/>
</clipPath>
</defs>
</svg>
