<svg width="24" height="25" viewBox="0 0 24 25" fill="none" xmlns="http://www.w3.org/2000/svg">
<g clip-path="url(#clip0_64906_131936)">
<g clip-path="url(#clip1_64906_131936)">
<path fill-rule="evenodd" clip-rule="evenodd" d="M14.1041 7.93734L16.3645 5.67689C14.955 5.17526 13.3203 5.48859 12.192 6.61689C11.1451 7.66378 10.7998 9.14661 11.1562 10.4811L5.82797 15.8093C5.04693 16.5903 5.04693 17.8566 5.82797 18.6377C6.60902 19.4187 7.87535 19.4187 8.6564 18.6377L13.9846 13.3095C15.319 13.6659 16.8019 13.3207 17.8489 12.2737C18.9772 11.1454 19.2905 9.51079 18.7889 8.10126L16.5284 10.3617L14.6164 9.84937L14.1041 7.93734ZM6.88863 17.577C6.69337 17.3818 6.69337 17.0652 6.88863 16.8699C7.0839 16.6747 7.40048 16.6747 7.59574 16.8699C7.791 17.0652 7.791 17.3818 7.59574 17.577C7.40048 17.7723 7.0839 17.7723 6.88863 17.577Z" fill="black"/>
</g>
</g>
<defs>
<clipPath id="clip0_64906_131936">
<rect y="0.8125" width="24" height="24" rx="2" fill="white"/>
</clipPath>
<clipPath id="clip1_64906_131936">
<rect y="0.8125" width="24" height="24" rx="2" fill="white"/>
</clipPath>
</defs>
</svg>
